<svg xmlns="http://www.w3.org/2000/svg" xmlns:xlink="http://www.w3.org/1999/xlink" width="500" zoomAndPan="magnify" viewBox="0 0 375 374.999991" height="500" preserveAspectRatio="xMidYMid meet" version="1.0"><defs><g/><clipPath id="id1"><path d="M 99.394531 105 L 188 105 L 188 183.652344 L 99.394531 183.652344 Z M 99.394531 105 " clip-rule="nonzero"/></clipPath><clipPath id="id2"><path d="M 187 65.152344 L 275.644531 65.152344 L 275.644531 143 L 187 143 Z M 187 65.152344 " clip-rule="nonzero"/></clipPath></defs><g clip-path="url(#id1)"><path fill="#ff6100" d="M 158.742188 160.953125 L 158.742188 171.679688 L 110.160156 149.109375 L 110.160156 140.40625 L 158.742188 117.839844 L 158.742188 128.570312 L 122 144.65625 L 122 144.859375 Z M 187.597656 105.921875 L 106.347656 105.921875 C 102.511719 105.921875 99.402344 109.03125 99.402344 112.867188 L 99.402344 176.652344 C 99.402344 180.488281 102.511719 183.597656 106.347656 183.597656 L 165.042969 183.597656 L 187.597656 105.921875 " fill-opacity="1" fill-rule="nonzero"/></g><g clip-path="url(#id2)"><path fill="#ff1616" d="M 264.902344 108.679688 L 216.320312 130.945312 L 216.320312 120.214844 L 253.871094 104.125 L 253.871094 103.921875 L 216.320312 87.832031 L 216.320312 77.105469 L 264.902344 99.371094 Z M 210.152344 65.1875 L 187.597656 142.863281 L 268.714844 142.863281 C 272.550781 142.863281 275.660156 139.753906 275.660156 135.917969 L 275.660156 72.128906 C 275.660156 68.296875 272.550781 65.1875 268.714844 65.1875 L 210.152344 65.1875 " fill-opacity="1" fill-rule="nonzero"/></g><g fill="#ffffff" fill-opacity="1"><g transform="translate(88.077855, 219.882348)"><g><path d="M 2.667969 0 L 11.621094 0 C 19.082031 0 25.183594 -6.058594 25.183594 -13.566406 C 25.183594 -21.070312 19.082031 -27.128906 11.621094 -27.128906 L 2.667969 -27.128906 Z M 8.636719 -5.289062 L 8.636719 -21.839844 L 11.574219 -21.839844 C 15.871094 -21.839844 19.214844 -18.265625 19.214844 -13.566406 C 19.214844 -8.863281 15.871094 -5.289062 11.574219 -5.289062 Z M 8.636719 -5.289062 "/></g></g></g><g fill="#ffffff" fill-opacity="1"><g transform="translate(116.521413, 219.882348)"><g><path d="M 19.214844 -21.882812 L 19.214844 -27.128906 L 2.894531 -27.128906 L 2.894531 0 L 19.214844 0 L 19.214844 -5.246094 L 8.863281 -5.246094 L 8.863281 -10.941406 L 17.722656 -10.941406 L 17.722656 -16.1875 L 8.863281 -16.1875 L 8.863281 -21.882812 Z M 19.214844 -21.882812 "/></g></g></g><g fill="#ffffff" fill-opacity="1"><g transform="translate(139.178725, 219.882348)"><g/></g></g><g fill="#ffffff" fill-opacity="1"><g transform="translate(151.619705, 219.882348)"><g><path d="M 8.636719 -5.289062 L 8.636719 -27.128906 L 2.667969 -27.128906 L 2.667969 0 L 17.632812 0 L 17.632812 -5.289062 Z M 8.636719 -5.289062 "/></g></g></g><g fill="#ffffff" fill-opacity="1"><g transform="translate(170.931849, 219.882348)"><g><path d="M 19.214844 -21.882812 L 19.214844 -27.128906 L 2.894531 -27.128906 L 2.894531 0 L 19.214844 0 L 19.214844 -5.246094 L 8.863281 -5.246094 L 8.863281 -10.941406 L 17.722656 -10.941406 L 17.722656 -16.1875 L 8.863281 -16.1875 L 8.863281 -21.882812 Z M 19.214844 -21.882812 "/></g></g></g><g fill="#ffffff" fill-opacity="1"><g transform="translate(193.589158, 219.882348)"><g><path d="M 2.894531 0 L 8.863281 0 L 8.863281 -27.128906 L 2.894531 -27.128906 Z M 2.894531 0 "/></g></g></g><g fill="#ffffff" fill-opacity="1"><g transform="translate(206.889022, 219.882348)"><g><path d="M 16.820312 -11.167969 C 20.03125 -12.117188 22.292969 -15.101562 22.292969 -18.808594 C 22.292969 -23.421875 18.855469 -27.128906 14.199219 -27.128906 L 2.667969 -27.128906 L 2.667969 0 L 8.636719 0 L 8.636719 -10.488281 L 11.03125 -10.488281 L 17.722656 0 L 24.417969 0 Z M 13.292969 -15.417969 L 8.636719 -15.417969 L 8.636719 -21.839844 L 13.292969 -21.839844 C 15.191406 -21.839844 16.59375 -20.484375 16.59375 -18.628906 C 16.59375 -16.730469 15.191406 -15.417969 13.292969 -15.417969 Z M 13.292969 -15.417969 "/></g></g></g><g fill="#ffffff" fill-opacity="1"><g transform="translate(232.665487, 219.882348)"><g><path d="M 15.597656 0.363281 C 23.332031 0.363281 29.527344 -5.878906 29.527344 -13.566406 C 29.527344 -21.25 23.332031 -27.492188 15.597656 -27.492188 C 7.914062 -27.492188 1.671875 -21.25 1.671875 -13.566406 C 1.671875 -5.878906 7.914062 0.363281 15.597656 0.363281 Z M 15.597656 -5.472656 C 11.03125 -5.472656 7.550781 -8.996094 7.550781 -13.566406 C 7.550781 -18.132812 11.03125 -21.660156 15.597656 -21.660156 C 20.210938 -21.660156 23.691406 -18.132812 23.691406 -13.566406 C 23.691406 -8.996094 20.210938 -5.472656 15.597656 -5.472656 Z M 15.597656 -5.472656 "/></g></g></g><g fill="#ffffff" fill-opacity="1"><g transform="translate(265.493938, 219.882348)"><g><path d="M 11.03125 0.363281 C 16.097656 0.363281 20.390625 -2.621094 20.390625 -7.6875 C 20.390625 -17.722656 7.914062 -15.238281 7.914062 -19.941406 C 7.914062 -21.476562 9.089844 -22.199219 10.535156 -22.199219 C 12.074219 -22.199219 13.609375 -21.339844 14.964844 -19.851562 L 18.945312 -23.648438 C 16.957031 -25.953125 13.925781 -27.492188 10.582031 -27.492188 C 6.285156 -27.492188 1.898438 -24.914062 1.898438 -19.488281 C 1.898438 -10.265625 14.421875 -12.480469 14.421875 -7.730469 C 14.421875 -6.238281 13.15625 -5.246094 11.078125 -5.246094 C 8.589844 -5.246094 6.648438 -6.648438 5.652344 -8.773438 L 0.722656 -5.695312 C 2.488281 -2.304688 6.285156 0.363281 11.03125 0.363281 Z M 11.03125 0.363281 "/></g></g></g><g fill="#ff1616" fill-opacity="1"><g transform="translate(130.968477, 270.132345)"><g><path d="M 15.597656 0.363281 C 20.980469 0.363281 25.636719 -2.667969 27.941406 -7.097656 L 22.789062 -9.765625 C 21.476562 -7.1875 18.808594 -5.472656 15.597656 -5.472656 C 11.03125 -5.472656 7.550781 -8.996094 7.550781 -13.566406 C 7.550781 -18.132812 11.03125 -21.660156 15.597656 -21.660156 C 18.808594 -21.660156 21.476562 -19.941406 22.789062 -17.363281 L 27.941406 -20.03125 C 25.636719 -24.460938 20.980469 -27.492188 15.597656 -27.492188 C 7.914062 -27.492188 1.671875 -21.25 1.671875 -13.566406 C 1.671875 -5.878906 7.914062 0.363281 15.597656 0.363281 Z M 15.597656 0.363281 "/></g></g></g><g fill="#ff1616" fill-opacity="1"><g transform="translate(161.672289, 270.132345)"><g><path d="M 15.597656 0.363281 C 23.332031 0.363281 29.527344 -5.878906 29.527344 -13.566406 C 29.527344 -21.25 23.332031 -27.492188 15.597656 -27.492188 C 7.914062 -27.492188 1.671875 -21.25 1.671875 -13.566406 C 1.671875 -5.878906 7.914062 0.363281 15.597656 0.363281 Z M 15.597656 -5.472656 C 11.03125 -5.472656 7.550781 -8.996094 7.550781 -13.566406 C 7.550781 -18.132812 11.03125 -21.660156 15.597656 -21.660156 C 20.210938 -21.660156 23.691406 -18.132812 23.691406 -13.566406 C 23.691406 -8.996094 20.210938 -5.472656 15.597656 -5.472656 Z M 15.597656 -5.472656 "/></g></g></g><g fill="#ff1616" fill-opacity="1"><g transform="translate(194.500743, 270.132345)"><g><path d="M 2.667969 0 L 11.621094 0 C 19.082031 0 25.183594 -6.058594 25.183594 -13.566406 C 25.183594 -21.070312 19.082031 -27.128906 11.621094 -27.128906 L 2.667969 -27.128906 Z M 8.636719 -5.289062 L 8.636719 -21.839844 L 11.574219 -21.839844 C 15.871094 -21.839844 19.214844 -18.265625 19.214844 -13.566406 C 19.214844 -8.863281 15.871094 -5.289062 11.574219 -5.289062 Z M 8.636719 -5.289062 "/></g></g></g><g fill="#ff1616" fill-opacity="1"><g transform="translate(222.944305, 270.132345)"><g><path d="M 19.214844 -21.882812 L 19.214844 -27.128906 L 2.894531 -27.128906 L 2.894531 0 L 19.214844 0 L 19.214844 -5.246094 L 8.863281 -5.246094 L 8.863281 -10.941406 L 17.722656 -10.941406 L 17.722656 -16.1875 L 8.863281 -16.1875 L 8.863281 -21.882812 Z M 19.214844 -21.882812 "/></g></g></g><g fill="#ffffff" fill-opacity="1"><g transform="translate(74.775368, 298.744499)"><g><path d="M 14.515625 -11.628906 L 11.53125 -2.074219 L 8.703125 -11.628906 L 6.957031 -11.628906 L 4.167969 -2.09375 L 1.203125 -11.628906 L -0.117188 -11.628906 L 3.527344 0 L 4.84375 0 L 7.828125 -10.308594 L 10.871094 0 L 12.171875 0 L 15.792969 -11.628906 Z M 14.515625 -11.628906 "/></g></g></g><g fill="#ffffff" fill-opacity="1"><g transform="translate(95.647743, 298.744499)"><g><path d="M 7.867188 -10.425781 L 7.867188 -11.628906 L 1.511719 -11.628906 L 1.511719 0 L 7.867188 0 L 7.867188 -1.203125 L 2.753906 -1.203125 L 2.753906 -5.214844 L 7.210938 -5.214844 L 7.210938 -6.414062 L 2.753906 -6.414062 L 2.753906 -10.425781 Z M 7.867188 -10.425781 "/></g></g></g><g fill="#ffffff" fill-opacity="1"><g transform="translate(109.872779, 298.744499)"><g><path d="M 7.152344 -5.890625 C 8.179688 -6.355469 8.855469 -7.285156 8.855469 -8.527344 C 8.855469 -10.347656 7.421875 -11.628906 5.640625 -11.628906 L 1.414062 -11.628906 L 1.414062 0 L 6.046875 0 C 7.808594 0 9.226562 -1.257812 9.226562 -3.0625 C 9.226562 -4.476562 8.371094 -5.484375 7.152344 -5.890625 Z M 7.617188 -8.429688 C 7.617188 -7.285156 6.667969 -6.414062 5.503906 -6.414062 L 2.636719 -6.414062 L 2.636719 -10.386719 L 5.503906 -10.386719 C 6.667969 -10.386719 7.617188 -9.574219 7.617188 -8.429688 Z M 5.890625 -1.242188 L 2.636719 -1.242188 L 2.636719 -5.214844 L 5.890625 -5.214844 C 7.035156 -5.214844 7.984375 -4.339844 7.984375 -3.199219 C 7.984375 -2.054688 7.035156 -1.242188 5.890625 -1.242188 Z M 5.890625 -1.242188 "/></g></g></g><g fill="#ffffff" fill-opacity="1"><g transform="translate(125.202477, 298.744499)"><g/></g></g><g fill="#ffffff" fill-opacity="1"><g transform="translate(135.067005, 298.744499)"><g><path d="M 1.414062 0 L 4.59375 0 C 7.789062 0 10.40625 -2.597656 10.40625 -5.8125 C 10.40625 -9.03125 7.789062 -11.628906 4.59375 -11.628906 L 1.414062 -11.628906 Z M 2.636719 -1.242188 L 2.636719 -10.386719 L 4.574219 -10.386719 C 7.152344 -10.386719 9.167969 -8.429688 9.167969 -5.8125 C 9.167969 -3.199219 7.152344 -1.242188 4.574219 -1.242188 Z M 2.636719 -1.242188 "/></g></g></g><g fill="#ffffff" fill-opacity="1"><g transform="translate(151.61764, 298.744499)"><g><path d="M 7.867188 -10.425781 L 7.867188 -11.628906 L 1.511719 -11.628906 L 1.511719 0 L 7.867188 0 L 7.867188 -1.203125 L 2.753906 -1.203125 L 2.753906 -5.214844 L 7.210938 -5.214844 L 7.210938 -6.414062 L 2.753906 -6.414062 L 2.753906 -10.425781 Z M 7.867188 -10.425781 "/></g></g></g><g fill="#ffffff" fill-opacity="1"><g transform="translate(165.842676, 298.744499)"><g><path d="M 8.429688 -11.628906 L 4.902344 -1.589844 L 1.375 -11.628906 L 0 -11.628906 L 4.207031 0 L 5.582031 0 L 9.785156 -11.628906 Z M 8.429688 -11.628906 "/></g></g></g><g fill="#ffffff" fill-opacity="1"><g transform="translate(180.823533, 298.744499)"><g><path d="M 7.867188 -10.425781 L 7.867188 -11.628906 L 1.511719 -11.628906 L 1.511719 0 L 7.867188 0 L 7.867188 -1.203125 L 2.753906 -1.203125 L 2.753906 -5.214844 L 7.210938 -5.214844 L 7.210938 -6.414062 L 2.753906 -6.414062 L 2.753906 -10.425781 Z M 7.867188 -10.425781 "/></g></g></g><g fill="#ffffff" fill-opacity="1"><g transform="translate(195.048569, 298.744499)"><g><path d="M 2.65625 -1.242188 L 2.65625 -11.628906 L 1.414062 -11.628906 L 1.414062 0 L 6.976562 0 L 6.976562 -1.242188 Z M 2.65625 -1.242188 "/></g></g></g><g fill="#ffffff" fill-opacity="1"><g transform="translate(207.393747, 298.744499)"><g><path d="M 6.917969 0.15625 C 10.234375 0.15625 12.886719 -2.519531 12.886719 -5.8125 C 12.886719 -9.109375 10.234375 -11.78125 6.917969 -11.78125 C 3.625 -11.78125 0.949219 -9.109375 0.949219 -5.8125 C 0.949219 -2.519531 3.625 0.15625 6.917969 0.15625 Z M 6.917969 -1.085938 C 4.300781 -1.085938 2.191406 -3.179688 2.191406 -5.8125 C 2.191406 -8.449219 4.300781 -10.542969 6.917969 -10.542969 C 9.554688 -10.542969 11.648438 -8.449219 11.648438 -5.8125 C 11.648438 -3.179688 9.554688 -1.085938 6.917969 -1.085938 Z M 6.917969 -1.085938 "/></g></g></g><g fill="#ffffff" fill-opacity="1"><g transform="translate(226.444415, 298.744499)"><g><path d="M 5.582031 -11.628906 L 1.414062 -11.628906 L 1.414062 0 L 2.65625 0 L 2.65625 -5.175781 L 5.582031 -5.175781 C 7.382812 -5.175781 8.816406 -6.589844 8.816406 -8.390625 C 8.816406 -10.175781 7.382812 -11.628906 5.582031 -11.628906 Z M 5.464844 -6.355469 L 2.65625 -6.355469 L 2.65625 -10.425781 L 5.464844 -10.425781 C 6.628906 -10.425781 7.578125 -9.613281 7.578125 -8.371094 C 7.578125 -7.09375 6.628906 -6.355469 5.464844 -6.355469 Z M 5.464844 -6.355469 "/></g></g></g><g fill="#ffffff" fill-opacity="1"><g transform="translate(240.785719, 298.744499)"><g><path d="M 11.667969 -11.628906 L 7.191406 -1.492188 L 2.734375 -11.628906 L 1.414062 -11.628906 L 1.414062 0 L 2.65625 0 L 2.65625 -9.1875 L 6.667969 0 L 7.695312 0 L 11.746094 -9.148438 L 11.746094 0 L 12.964844 0 L 12.964844 -11.628906 Z M 11.667969 -11.628906 "/></g></g></g><g fill="#ffffff" fill-opacity="1"><g transform="translate(260.359628, 298.744499)"><g><path d="M 7.867188 -10.425781 L 7.867188 -11.628906 L 1.511719 -11.628906 L 1.511719 0 L 7.867188 0 L 7.867188 -1.203125 L 2.753906 -1.203125 L 2.753906 -5.214844 L 7.210938 -5.214844 L 7.210938 -6.414062 L 2.753906 -6.414062 L 2.753906 -10.425781 Z M 7.867188 -10.425781 "/></g></g></g><g fill="#ffffff" fill-opacity="1"><g transform="translate(274.584657, 298.744499)"><g><path d="M 9.765625 -11.628906 L 9.765625 -2.074219 L 2.578125 -11.628906 L 1.414062 -11.628906 L 1.414062 0 L 2.65625 0 L 2.65625 -9.554688 L 9.824219 0 L 10.988281 0 L 10.988281 -11.628906 Z M 9.765625 -11.628906 "/></g></g></g><g fill="#ffffff" fill-opacity="1"><g transform="translate(292.181822, 298.744499)"><g><path d="M 7.847656 -11.628906 L 0.175781 -11.628906 L 0.175781 -10.386719 L 3.390625 -10.386719 L 3.390625 0 L 4.632812 0 L 4.632812 -10.386719 L 7.847656 -10.386719 Z M 7.847656 -11.628906 "/></g></g></g></svg>